<svg xmlns="http://www.w3.org/2000/svg" viewBox="0 0 256 256" role="img" aria-label="Senera"><g data-part="petal"><path d="M51 39.2A117 117 0 0 0 12 146c0 1.9.5 3.8 1 4.4.5.5.6 1 .7 2.5.2 1.5.3 2 .9 2.5q.6.8.8 1.7.1.9.9 1.8.6.7.8 1.6.1.8.9 1.7t.8 1.6.7 1.5q.6.9 1 2c.2.8.7 1.4 2.6 3.4s2.4 2.6 2.5 3.4c.2 1 1 1.8 7 7.9 6.7 6.7 7.6 7.5 8.7 7.5q.6 0 2 1.5a7 7 0 0 0 2.9 1.9q1.1.4 1.7.8c.2.3 1 .7 1.5.9q1 .2 2 1 .9.6 1.5.7t1.7.8a5 5 0 0 0 1.8.9q.6 0 1.3.6 1.3 1.3 3.3 1.2 1.3 0 2 .6.8.7 2 1 1 .3 1.7 1c.5.4 1 .5 3.2.6 2.2.2 2.7.3 3.2.7 1.2 1 1 1 18.4 1h16.7l.8-.6c1-.8 2-1.1 4.3-1.1 1.7 0 2 0 2.7-.7s1.2-.8 2.6-.9 1.8-.2 2.6-.9 1.1-.7 2.3-.7q1.5 0 2.3-.7 1.3-1 2.5-1.2.6-.1 1.6-.9.8-.6 1.4-.7c.6 0 1.8-.6 2.2-1.2l1-.5 1.9-.8q1-.7 2-1l1.6-.9q.8-.6 1.7-.8 1 0 2.2-1.3l1.1-1.3V186c0-2.4 0-2.5-.8-3.4-.7-.8-.8-1.2-.8-2.2l-.1-1.7a82 82 0 0 0-11.5-11.3q-1.2-.2-2.5-1.3-.8-.5-1.4-.6c-.3 0-1-.3-1.3-.6q-1.4-1.3-3.3-1.2c-1 0-1.4-.1-2.1-.7s-1.3-.7-2.6-.8-1.8-.3-2.5-1c-.8-.5-1.2-.7-2.6-.7-1.5-.1-1.8-.2-2.6-1-.8-.6-1.1-.7-2.3-.7a4 4 0 0 1-3.2-1.2q-.6-.7-2.1-.6c-1.2 0-1.6-.1-2.4-.7q-1-.7-2-1t-1.5-.8a5 5 0 0 0-1.8-.9q-1.2-.4-1.7-.8t-1.7-.9a5 5 0 0 1-1.8-.9q-.6-.5-1.6-.8t-2-1q-.8-.6-1.4-.7t-1.7-.9-1.9-.8q-.6 0-2.3-1.7t-2.6-1.7c-.9-.2-1.6-.9-5.1-4.3s-4.3-4-5.1-4.2c-1.5-.3-3-1.9-3.5-3.5-.4-1.1-.8-1.7-4.4-5.3-3.5-3.4-4-4-4.2-5q-.1-1-.8-1.7-.7-.8-.9-1.7 0-1-1.8-2.6l-1.6-1.7v-1.6c0-1.4 0-1.6-.7-2.4q-.7-.9-1-1.9t-1-1.8c-.5-.6-.6-1-.8-2.6-.1-1.6-.2-2-.9-2.6l-.7-.8V93l-.8-.8-.8-.9v-24l.6-.6q1.3-1.2 1-3.6t1-3.6c.5-.5.6-.8.6-2.2s0-1.6.9-2.6.9-1.2.9-2.6 0-1.7.8-2.6q.9-1 .9-1.8 0-.7.8-1.5l1-2q0-1 1.7-2.6c1.3-1.3 1.5-1.6 1.5-2.4q0-3-3.4 0" fill="#F28CB3"/><path d="M145.1 53.8c-.8.6-1.1.7-2.7.7q-3.3 0-4.3 1c-.5.5-1 .6-2.3.8-1.4.1-2 .3-2.6.8l-1.8 1q-.9.1-1.5.6-1.1 1-2.1 1-.6.1-1.4.8-.8.6-1.9 1-1 .3-1.7.8-.7.7-1.6.8-.9 0-2.7 1.8-1.7 1.5-2.6 1.7a56 56 0 0 0-11.8 12q-.1 1-.9 1.7c-.7.7-1 2-.4 2.7.2.4 3 .7 7.6.7 3 0 3 0 4 .8l1 .7h3.6c3.9 0 4.7.2 5.7 1.1.5.5 1 .6 3.2.7s2.6.2 3.5.9 1.2.7 3.5.8c2.4.2 2.6.2 3.3.8q.8.7 1.8 1l1.6.7q1 1 3 1c1 0 1.4.2 2.2.8q.9.7 1.9.7 2 0 3.2 1 .6.5 1.6.8t2 1c.7.6 1 .7 2.2.7a4 4 0 0 1 3.1 1.2q.7.5 1.3.6t2.5 1.6a8 8 0 0 0 2.7 1.8 4 4 0 0 1 1.6.8q.8.7 1.8.9.9.1 2.4 1.6 1.5 1.6 2.7 1.8 1 .3 2.6 1.7 1.5 1.7 2.6 1.8c1.6.3 18.4 17 18.7 18.6q.1 1 .8 1.7.7.9.9 1.8 0 .9 1.8 2.7 1.6 1.7 1.6 2.3t.6 1.4q1 1.4 1.2 2.5.1.7.8 1.3l.7 1.4q.2 1.2 1.3 2.5c.5.8.6 1.1.6 3.2 0 2.3 0 2.3.8 3.2s.8 1 .8 3.4 0 2.4.9 3.3l.7 1v27.4l-.6.5q-1.2 1.2-1 3.6.3 2.4-1 3.7c-.5.5-.6.8-.6 2.1s0 1.7-.9 2.6-.8 1.2-.8 2.7c0 1.4-.1 1.6-1 2.6-.7 1-.8 1.2-.8 2.6v1.7l-1.7 1.8c-2 2-2.1 2.6-1.2 3.5 1.3 1.3 1.9.9 8-5.4 5.9-5.9 6.9-7.1 6.9-7.9q-.2-.6 2.4-3c1.9-2 2.4-2.7 2.7-3.7q.3-1.2 1.6-2.3 2-1.8 1.8-2.8.1-.6 1.4-2 2.1-2.3 2.1-3.4 0-.4.7-1.2.7-.9.9-1.8t.8-1.6l.9-1.8q.3-1 .8-1.7t.9-1.8.6-1.5a6 6 0 0 0 1.1-3.2q0-1 .6-1.7a4 4 0 0 0 1.2-3.2c0-1.2.1-1.5.8-2.2s.8-1.1.8-2.6c0-1.3.2-1.8.8-2.6.7-1 .7-1.2.8-4.4s.2-3.3 1-4l.7-.8v-16.3l.1-16.2-.8-.9c-.8-.9-.8-1-1-3.6 0-2.6-.1-2.8-.8-3.5-.6-.6-.7-.9-.7-2.3-.1-1.5-.2-1.8-.8-2.4q-.7-.7-1-1.8-.2-1-.8-1.8-.7-.7-.9-1.7t-1-2q-.6-.8-.7-1.5t-.8-1.6-.9-1.8q0-.8-1.7-2.5t-1.7-2.6a130 130 0 0 0-17-17q-1 0-3.6-2.7a3 3 0 0 0-1.5-.7q-.8-.2-2.6-1.7-1.7-1.7-2.6-1.8t-1.8-.9q-.8-.7-1.4-.7t-1.4-.6q-1.4-1-2.6-1.3-.6-.1-1.4-.8T192 58c-1.3-.1-1.8-.3-2.6-.9-.7-.5-1.3-.7-2.7-.8-1.3-.2-1.8-.3-2.3-.8q-1-1-4.3-1c-1.5 0-1.9-.1-2.7-.8l-1-.7h-30.3z" fill="#F28CB3"/></g><g data-part="core"><path d="M118 12.6c-1 1-2 1.1-5.1 1.1-2.7 0-2.8 0-3.7.8-.8.7-1 .7-2.7.7-2.3 0-3.3.3-4.3 1.1q-.7.6-1.3.7t-1.4.6q-1.4 1-2.5 1.2l-1.6 1q-1 .6-1.5.7t-1.6.7-2 1q-.8.2-3.3 2.6c-2 2-2.5 2.4-3.4 2.5-1.4.3-10 8.8-10.2 10.3-.2.8-.7 1.4-2.7 3.5a12 12 0 0 0-2.5 3.1c0 .6-.5 1.8-.7 1.8-.3 0-1 1.4-1 2l-.7 1.4q-.7.9-1 1.8-.2 1-.8 1.7c-.8.9-.9 1.1-.8 2.6q0 1.6-1.2 2.8c-.4.4-.5.8-.5 2 0 1.5-.1 1.7-.9 2.7s-.9 1.1-.9 3.5 0 2.5-.8 3.5l-.9 1v10c0 10.2 0 10.2 1.1 11.6.6.6.6 1 .6 3 0 2.3 0 2.4.8 3.3.7.8.8 1.1 1 2.7s.2 2 .9 2.6.7 1 .7 2.4c.1 1.4.2 1.8.8 2.5q.7.9 1 1.8.1 1 .8 1.6.6.8.8 1.8c.2.9.7 1.5 2.6 3.4 2 2 2.4 2.6 2.6 3.5.4 1.6 2.1 3.3 3.4 3.3q2 0 .6-1.9l-.7-1v-11.4C75 98 75 98 76.2 96.9c.4-.4.5-.8.5-2 0-1.5.1-1.7 1-2.7q.8-1 .8-1.7t.9-1.8c.8-.9.8-1.1.8-2.6v-1.7l1.6-1.6q1.7-1.8 1.8-2.7c.2-.7.6-1.3 1.8-2.6Q87 76 87 75.3c0-1-.2-.8 6.5-7.5 5.2-5.2 6.3-6.1 7.1-6.3s1.6-.8 3.5-2.6 2.5-2.4 3.4-2.6c.6-.2 1.4-.5 1.6-.8a5 5 0 0 1 1.8-.9q1.2-.4 1.7-.9t1.6-.8 2-1q.8-.6 1.4-.7t1.4-.6q1.4-1 2.5-1.2.7-.2 1.5-.8c.6-.5 1.1-.7 2.5-.8q1.8-.2 2.3-.7Q129 46 131 46q1.3 0 2-.7 1-1 4.8-1a3 3 0 0 0 2.1-.8l1-.7 4.1-.1h4.1l1.1-.9 1.1-.8H168l.8.6c1.2 1 1.9 1.1 6.7 1.1h4.5l1 .8c.7.6 1.1.7 3.4.9 2.2.1 2.7.2 3.4.8q.8.7 2.6.8c1.4.1 1.8.3 2.6 1 .7.6 1 .7 2.3.7s1.6.2 2.3.7q1.4 1 2.5 1.2.7.1 1.4.7t1.6.9 1.8.9q.7.5 1.8.8l1.6 1q.8.5 1.8.7c.7.1 1.3.6 3.3 2.5 2 2 2.5 2.4 3.3 2.6.9.1 1.5.6 4.3 3.3 3.4 3.3 3.5 3.4 4 3q1.2-1.1-1.3-3.6c-1.3-1.3-1.6-1.8-1.7-2.6-.2-.9-.6-1.4-2.4-3.3-2.3-2.3-2.7-2.9-2.7-3.8 0-1-17.6-18.4-18.8-18.6q-1-.1-1.6-.7-2.6-2.6-3.6-2.7-.6 0-2.3-1.5-1.7-1.7-2.8-1.9-1-.3-1.6-.8c-.2-.3-1-.7-1.6-.9a7 7 0 0 1-2.8-1.7l-1.8-1.4-2.3-1a7 7 0 0 0-3-1q-1 0-2.2-.9t-1.8-.9-1.2-.5a7 7 0 0 0-3.7-1.2q-.9 0-1.6-.5a8 8 0 0 0-4.5-1.3c-1.4 0-1.8 0-2.7-.7s-1-.8-3.6-.8c-3 0-4-.2-5-1l-.9-.7h-28.6z" fill="#F28CB3"/><path d="M96.6 95.8c-1 .4-1.1.9-1.1 8.4v7.3l.9 1q.8 1 .8 1.8 0 .7.8 1.5.7 1 1 2a53 53 0 0 0 11.9 11.9q.9 0 2.5 1.6 1.6 1.5 2.7 1.9t1.8.9q.5.6 2.3.7 2 .1 2.5.8.9.7 1.9 1 1 .1 1.5.7 1.2 1 2.8 1 1.3 0 2 .5c1.6 1 2 1.2 2.5 1.2q.6.1 1.4.8.9.7 1.8.9t1.7.8 1.7.9q.9.1 1.5.8.8.6 1.8.8 1 .1 2.6 1.8c1.1 1 1.7 1.5 2.6 1.7 1.6.3 6.4 5.1 6.8 6.8.2.8.6 1.4 1.9 2.7q1.7 1.8 1.6 2.5t.8 1.8c.8.9.9 1.2.9 2.5s.1 1.6.8 2.4c1 1.1 1 1.2.9 13.6v11.1l-.9 1c-.7.8-.8 1-.8 2.3q0 2-1.2 3.2c-.4.4-.5.7-.5 2s-.1 1.7-1 2.6c-.7 1-.8 1.2-.8 2.7 0 1.4 0 1.6-.7 2.4q-.7.9-1 1.9-.2 1-.9 1.7-.5.7-.8 1.7-.2 1-.8 1.7-.7.8-.9 1.7 0 1-1.5 2.3c-1.5 1.5-1.9 2.1-1.9 2.9q0 1.5-2.6 1.5c-1.8 0-2.3-.3-2.5-1.6q-.5-2 .9-3.5c.6-.7.7-1 .7-2.2 0-1.6.2-2 1.1-3.1.6-.6.7-1 .7-2.2 0-1.4 0-1.7.7-2.5q.7-.8 1-1.9.2-1 .9-1.7.5-.7.8-1.8.3-1 1-1.8c.6-.6.7-1 .7-2.3s.1-1.7.7-2.4c.8-1 .8-1 .3-1.6-.7-.6-2-.3-2.9.7q-.3.3-1.5.7c-1 .2-1.5.6-3.4 2.5s-2.4 2.3-3.5 2.6q-1.2.4-1.7.9t-1.6.8q-1 .2-2.6 1.7-1.5 1.3-2.2 1.6a6 6 0 0 0-2.5 1.2c-.6.5-1.1.7-2.3.7s-1.5 0-2.2.6q-.8.7-2 1-1 .4-1.7.9-.8.9-4.7 1c-1 0-1.4.1-2.1.7s-1 .8-2.9.8c-2.3 0-3 .2-4.1 1-.8.7-.9.7-4.7.7-3.6 0-4 0-4.8.6l-1.4.8c-.4.3-3.1.4-11.1.4-10.6 0-10.6 0-11.5-.6l-1.4-.9q-.5-.3-3.5-.3c-2.9 0-3.1 0-3.8-.6-1-1-1.9-1.1-4-1.1-1.8 0-2-.1-3-.8q-1-.7-2-.7-2 0-3.2-1.1c-.5-.4-1-.6-2.4-.7q-1.8-.1-2.4-.7-1-1-2.4-1.2-.8-.2-2.3-1.6t-2.4-1.7l-1.8-.9q-.8-.6-1.7-.8t-2.3-1.5q-3-3 .1 1c13.2 16.9 34 31 55.5 37.8 11.4 3.5 20.4 5 33.1 5.3 6.3.1 6.3.1 7.1-.5 1.7-1.2 1.8-1.2 5-1.2 2.8 0 3 0 3.7-.6q1.4-1.2 3.3-1.1c1 0 1.4-.2 2-.7q.8-.8 2.6-1 2 0 2.5-.7t1.7-1a5 5 0 0 0 1.9-.9q.8-.6 1.7-.8c.8-.1 1.3-.5 2.5-1.7s1.7-1.5 2.5-1.7q1 0 2.6-1.7 1.8-1.6 2.6-1.7a74 74 0 0 0 13.6-13.5q0-1 1.6-2.5c1.2-1.2 1.6-1.8 1.8-2.7q.3-1 .8-1.7.7-.7 1-1.8.2-1 .9-1.9c.7-.7.7-1 .7-2.4s.1-1.7.8-2.5q.7-.8 1-1.7.1-.8.8-1.6 1.1-1.4.9-3.8-.3-2 1-3.3c.5-.6.6-.8.6-4v-3.4l.9-1 .8-.9V175l-.8-.9-.8-1v-4.6l-.2-5q0-.6-.8-1.4c-.7-.8-.7-1-.7-2.3q0-2-1.2-3.1-.5-.6-.5-1c0-.6-.2-1-1.2-2.5q-.5-.7-.6-1.4t-.7-1.4q-.7-.8-1-1.9-.2-1-1.7-2.6-1.5-1.5-1.8-2.6a86 86 0 0 0-15.3-15.3q-1-.3-2.6-1.7-1.5-1.5-2.5-1.7-1 0-2.5-1.6-1.5-1.5-2.5-1.8t-2-1-1.5-.7-1.5-.7l-1.6-1q-1.1 0-2.5-1.2-.8-.5-1.4-.6t-1.3-.6q-.9-.7-2-1-1-.4-1.7-.9t-1.7-.8q-1.2-.4-1.8-1c-.5-.4-1-.6-2.4-.7s-1.8-.3-2.4-.8q-.9-.7-1.9-1-.9-.2-1.5-.7-1.2-1-2.8-1-1.2 0-2-.6c-1.6-1-2-1.1-2.5-1.1l-1.4-.8c-.8-.6-1.3-.8-2.7-1q-1.8-.1-2.5-.8-.8-.5-1.7-.8-.9-.2-1.8-1c-.7-.5-1-.6-2.2-.6q-1.6 0-2.3-.7-1.4-1-2.5-1.2l-1.6-.9q-1-.7-1.5-.7-.6-.1-1.6-.8c-1.2-.9-3.1-1.2-4.2-.7" fill="#F28CB3"/></g></svg>
